<mxfile host="app.diagrams.net" modified="2023-08-23T03:26:42.781Z" agent="Mozilla/5.0 (Windows NT 10.0; Win64; x64) AppleWebKit/537.36 (KHTML, like Gecko) Chrome/115.0.0.0 Safari/537.36" etag="pPCILPYeTUcz0Yzt12cs" version="21.6.8" type="github">
  <diagram name="第 1 页" id="z83SFHpxDndX_rbFmgmX">
    <mxGraphModel dx="819" dy="433" grid="0" gridSize="10" guides="1" tooltips="1" connect="1" arrows="1" fold="1" page="1" pageScale="1" pageWidth="827" pageHeight="1169" math="0" shadow="0">
      <root>
        <mxCell id="0" />
        <mxCell id="1" parent="0" />
        <mxCell id="dxlrdK0r9Vb-s2KCxe1M-6" value="" style="rounded=0;whiteSpace=wrap;html=1;" vertex="1" parent="1">
          <mxGeometry x="1014" y="284" width="120" height="60" as="geometry" />
        </mxCell>
        <mxCell id="dxlrdK0r9Vb-s2KCxe1M-62" value="" style="group" vertex="1" connectable="0" parent="1">
          <mxGeometry x="113" y="117" width="577" height="794.7931034482758" as="geometry" />
        </mxCell>
        <mxCell id="dxlrdK0r9Vb-s2KCxe1M-1" value="INITIAL" style="rounded=0;whiteSpace=wrap;html=1;" vertex="1" parent="dxlrdK0r9Vb-s2KCxe1M-62">
          <mxGeometry x="190" y="211" width="120" height="60" as="geometry" />
        </mxCell>
        <mxCell id="dxlrdK0r9Vb-s2KCxe1M-2" value="body" style="rounded=0;whiteSpace=wrap;html=1;" vertex="1" parent="dxlrdK0r9Vb-s2KCxe1M-62">
          <mxGeometry x="190" y="593" width="120" height="60" as="geometry" />
        </mxCell>
        <mxCell id="dxlrdK0r9Vb-s2KCxe1M-3" value="get_pou_name_state" style="rounded=0;whiteSpace=wrap;html=1;" vertex="1" parent="dxlrdK0r9Vb-s2KCxe1M-62">
          <mxGeometry x="190" width="120" height="60" as="geometry" />
        </mxCell>
        <mxCell id="dxlrdK0r9Vb-s2KCxe1M-13" style="edgeStyle=orthogonalEdgeStyle;rounded=0;orthogonalLoop=1;jettySize=auto;html=1;exitX=0.5;exitY=0;exitDx=0;exitDy=0;entryX=0.5;entryY=1;entryDx=0;entryDy=0;" edge="1" parent="dxlrdK0r9Vb-s2KCxe1M-62" source="dxlrdK0r9Vb-s2KCxe1M-1" target="dxlrdK0r9Vb-s2KCxe1M-3">
          <mxGeometry relative="1" as="geometry" />
        </mxCell>
        <mxCell id="dxlrdK0r9Vb-s2KCxe1M-4" value="st_state" style="rounded=0;whiteSpace=wrap;html=1;" vertex="1" parent="dxlrdK0r9Vb-s2KCxe1M-62">
          <mxGeometry x="24" y="711" width="120" height="60" as="geometry" />
        </mxCell>
        <mxCell id="dxlrdK0r9Vb-s2KCxe1M-45" style="edgeStyle=orthogonalEdgeStyle;rounded=0;orthogonalLoop=1;jettySize=auto;html=1;exitX=0.5;exitY=1;exitDx=0;exitDy=0;" edge="1" parent="dxlrdK0r9Vb-s2KCxe1M-62" source="dxlrdK0r9Vb-s2KCxe1M-2" target="dxlrdK0r9Vb-s2KCxe1M-4">
          <mxGeometry relative="1" as="geometry" />
        </mxCell>
        <mxCell id="dxlrdK0r9Vb-s2KCxe1M-59" style="edgeStyle=orthogonalEdgeStyle;rounded=0;orthogonalLoop=1;jettySize=auto;html=1;exitX=0.5;exitY=1;exitDx=0;exitDy=0;" edge="1" parent="dxlrdK0r9Vb-s2KCxe1M-62" source="dxlrdK0r9Vb-s2KCxe1M-5">
          <mxGeometry relative="1" as="geometry">
            <mxPoint x="440.8965517241379" y="794.7931034482758" as="targetPoint" />
          </mxGeometry>
        </mxCell>
        <mxCell id="dxlrdK0r9Vb-s2KCxe1M-5" value="sfc_state" style="rounded=0;whiteSpace=wrap;html=1;" vertex="1" parent="dxlrdK0r9Vb-s2KCxe1M-62">
          <mxGeometry x="381" y="711" width="120" height="60" as="geometry" />
        </mxCell>
        <mxCell id="dxlrdK0r9Vb-s2KCxe1M-47" style="edgeStyle=orthogonalEdgeStyle;rounded=0;orthogonalLoop=1;jettySize=auto;html=1;exitX=0.5;exitY=1;exitDx=0;exitDy=0;" edge="1" parent="dxlrdK0r9Vb-s2KCxe1M-62" source="dxlrdK0r9Vb-s2KCxe1M-2" target="dxlrdK0r9Vb-s2KCxe1M-5">
          <mxGeometry relative="1" as="geometry" />
        </mxCell>
        <mxCell id="dxlrdK0r9Vb-s2KCxe1M-28" style="edgeStyle=orthogonalEdgeStyle;rounded=0;orthogonalLoop=1;jettySize=auto;html=1;exitX=0;exitY=0.5;exitDx=0;exitDy=0;entryX=1;entryY=0.5;entryDx=0;entryDy=0;" edge="1" parent="dxlrdK0r9Vb-s2KCxe1M-62" source="dxlrdK0r9Vb-s2KCxe1M-7" target="dxlrdK0r9Vb-s2KCxe1M-1">
          <mxGeometry relative="1" as="geometry" />
        </mxCell>
        <mxCell id="dxlrdK0r9Vb-s2KCxe1M-7" value="config" style="rounded=0;whiteSpace=wrap;html=1;" vertex="1" parent="dxlrdK0r9Vb-s2KCxe1M-62">
          <mxGeometry x="457" y="211" width="120" height="60" as="geometry" />
        </mxCell>
        <mxCell id="dxlrdK0r9Vb-s2KCxe1M-27" style="edgeStyle=orthogonalEdgeStyle;rounded=0;orthogonalLoop=1;jettySize=auto;html=1;exitX=1;exitY=0.5;exitDx=0;exitDy=0;entryX=0;entryY=0.5;entryDx=0;entryDy=0;" edge="1" parent="dxlrdK0r9Vb-s2KCxe1M-62" source="dxlrdK0r9Vb-s2KCxe1M-1" target="dxlrdK0r9Vb-s2KCxe1M-7">
          <mxGeometry relative="1" as="geometry" />
        </mxCell>
        <mxCell id="dxlrdK0r9Vb-s2KCxe1M-58" style="edgeStyle=orthogonalEdgeStyle;rounded=0;orthogonalLoop=1;jettySize=auto;html=1;exitX=0.5;exitY=1;exitDx=0;exitDy=0;" edge="1" parent="dxlrdK0r9Vb-s2KCxe1M-62" source="dxlrdK0r9Vb-s2KCxe1M-8">
          <mxGeometry relative="1" as="geometry">
            <mxPoint x="249.8620689655172" y="792.7241379310344" as="targetPoint" />
          </mxGeometry>
        </mxCell>
        <mxCell id="dxlrdK0r9Vb-s2KCxe1M-8" value="il_state" style="rounded=0;whiteSpace=wrap;html=1;" vertex="1" parent="dxlrdK0r9Vb-s2KCxe1M-62">
          <mxGeometry x="190" y="711" width="120" height="60" as="geometry" />
        </mxCell>
        <mxCell id="dxlrdK0r9Vb-s2KCxe1M-46" style="edgeStyle=orthogonalEdgeStyle;rounded=0;orthogonalLoop=1;jettySize=auto;html=1;exitX=0.5;exitY=1;exitDx=0;exitDy=0;entryX=0.5;entryY=0;entryDx=0;entryDy=0;" edge="1" parent="dxlrdK0r9Vb-s2KCxe1M-62" source="dxlrdK0r9Vb-s2KCxe1M-2" target="dxlrdK0r9Vb-s2KCxe1M-8">
          <mxGeometry relative="1" as="geometry" />
        </mxCell>
        <mxCell id="dxlrdK0r9Vb-s2KCxe1M-9" value="header_state" style="rounded=0;whiteSpace=wrap;html=1;" vertex="1" parent="dxlrdK0r9Vb-s2KCxe1M-62">
          <mxGeometry x="190" y="355" width="120" height="60" as="geometry" />
        </mxCell>
        <mxCell id="dxlrdK0r9Vb-s2KCxe1M-29" style="edgeStyle=orthogonalEdgeStyle;rounded=0;orthogonalLoop=1;jettySize=auto;html=1;exitX=0.5;exitY=1;exitDx=0;exitDy=0;" edge="1" parent="dxlrdK0r9Vb-s2KCxe1M-62" source="dxlrdK0r9Vb-s2KCxe1M-1" target="dxlrdK0r9Vb-s2KCxe1M-9">
          <mxGeometry relative="1" as="geometry" />
        </mxCell>
        <mxCell id="dxlrdK0r9Vb-s2KCxe1M-43" style="edgeStyle=orthogonalEdgeStyle;rounded=0;orthogonalLoop=1;jettySize=auto;html=1;exitX=0.5;exitY=1;exitDx=0;exitDy=0;" edge="1" parent="dxlrdK0r9Vb-s2KCxe1M-62" source="dxlrdK0r9Vb-s2KCxe1M-10" target="dxlrdK0r9Vb-s2KCxe1M-2">
          <mxGeometry relative="1" as="geometry" />
        </mxCell>
        <mxCell id="dxlrdK0r9Vb-s2KCxe1M-10" value="vardecl_list_state" style="rounded=0;whiteSpace=wrap;html=1;" vertex="1" parent="dxlrdK0r9Vb-s2KCxe1M-62">
          <mxGeometry x="190" y="471" width="120" height="60" as="geometry" />
        </mxCell>
        <mxCell id="dxlrdK0r9Vb-s2KCxe1M-54" style="edgeStyle=orthogonalEdgeStyle;rounded=0;orthogonalLoop=1;jettySize=auto;html=1;exitX=0.5;exitY=1;exitDx=0;exitDy=0;entryX=0;entryY=0.5;entryDx=0;entryDy=0;" edge="1" parent="dxlrdK0r9Vb-s2KCxe1M-62" source="dxlrdK0r9Vb-s2KCxe1M-4" target="dxlrdK0r9Vb-s2KCxe1M-10">
          <mxGeometry relative="1" as="geometry">
            <mxPoint x="-79.10344827586209" y="511.344827586207" as="targetPoint" />
            <Array as="points">
              <mxPoint x="84" y="791" />
              <mxPoint y="791" />
              <mxPoint y="501" />
            </Array>
          </mxGeometry>
        </mxCell>
        <mxCell id="dxlrdK0r9Vb-s2KCxe1M-39" style="edgeStyle=orthogonalEdgeStyle;rounded=0;orthogonalLoop=1;jettySize=auto;html=1;exitX=0.5;exitY=1;exitDx=0;exitDy=0;" edge="1" parent="dxlrdK0r9Vb-s2KCxe1M-62" source="dxlrdK0r9Vb-s2KCxe1M-9" target="dxlrdK0r9Vb-s2KCxe1M-10">
          <mxGeometry relative="1" as="geometry" />
        </mxCell>
        <mxCell id="dxlrdK0r9Vb-s2KCxe1M-41" style="edgeStyle=orthogonalEdgeStyle;rounded=0;orthogonalLoop=1;jettySize=auto;html=1;exitX=0;exitY=0.5;exitDx=0;exitDy=0;entryX=1;entryY=0.5;entryDx=0;entryDy=0;" edge="1" parent="dxlrdK0r9Vb-s2KCxe1M-62" source="dxlrdK0r9Vb-s2KCxe1M-11" target="dxlrdK0r9Vb-s2KCxe1M-10">
          <mxGeometry relative="1" as="geometry" />
        </mxCell>
        <mxCell id="dxlrdK0r9Vb-s2KCxe1M-11" value="var_decl" style="rounded=0;whiteSpace=wrap;html=1;" vertex="1" parent="dxlrdK0r9Vb-s2KCxe1M-62">
          <mxGeometry x="441" y="471" width="120" height="60" as="geometry" />
        </mxCell>
        <mxCell id="dxlrdK0r9Vb-s2KCxe1M-40" style="edgeStyle=orthogonalEdgeStyle;rounded=0;orthogonalLoop=1;jettySize=auto;html=1;exitX=1;exitY=0.5;exitDx=0;exitDy=0;" edge="1" parent="dxlrdK0r9Vb-s2KCxe1M-62" source="dxlrdK0r9Vb-s2KCxe1M-10" target="dxlrdK0r9Vb-s2KCxe1M-11">
          <mxGeometry relative="1" as="geometry" />
        </mxCell>
        <mxCell id="dxlrdK0r9Vb-s2KCxe1M-25" style="edgeStyle=orthogonalEdgeStyle;rounded=0;orthogonalLoop=1;jettySize=auto;html=1;exitX=0.5;exitY=1;exitDx=0;exitDy=0;entryX=0.75;entryY=0;entryDx=0;entryDy=0;" edge="1" parent="dxlrdK0r9Vb-s2KCxe1M-62" source="dxlrdK0r9Vb-s2KCxe1M-12" target="dxlrdK0r9Vb-s2KCxe1M-1">
          <mxGeometry relative="1" as="geometry" />
        </mxCell>
        <mxCell id="dxlrdK0r9Vb-s2KCxe1M-12" value="ignore_pou_state" style="rounded=0;whiteSpace=wrap;html=1;" vertex="1" parent="dxlrdK0r9Vb-s2KCxe1M-62">
          <mxGeometry x="457" width="120" height="60" as="geometry" />
        </mxCell>
        <mxCell id="dxlrdK0r9Vb-s2KCxe1M-14" style="edgeStyle=orthogonalEdgeStyle;rounded=0;orthogonalLoop=1;jettySize=auto;html=1;exitX=1;exitY=0.5;exitDx=0;exitDy=0;" edge="1" parent="dxlrdK0r9Vb-s2KCxe1M-62" source="dxlrdK0r9Vb-s2KCxe1M-3" target="dxlrdK0r9Vb-s2KCxe1M-12">
          <mxGeometry relative="1" as="geometry" />
        </mxCell>
        <mxCell id="dxlrdK0r9Vb-s2KCxe1M-19" value="pre-parsing" style="text;html=1;align=center;verticalAlign=middle;resizable=0;points=[];autosize=1;strokeColor=none;fillColor=none;" vertex="1" parent="dxlrdK0r9Vb-s2KCxe1M-62">
          <mxGeometry x="174" y="109" width="79" height="26" as="geometry" />
        </mxCell>
        <mxCell id="dxlrdK0r9Vb-s2KCxe1M-22" value="&lt;span style=&quot;font-size: 11px;&quot;&gt;fun confg... is found&lt;/span&gt;" style="text;html=1;strokeColor=none;fillColor=none;align=center;verticalAlign=middle;whiteSpace=wrap;rounded=0;" vertex="1" parent="dxlrdK0r9Vb-s2KCxe1M-62">
          <mxGeometry x="258" y="109" width="92" height="30" as="geometry" />
        </mxCell>
        <mxCell id="dxlrdK0r9Vb-s2KCxe1M-23" value="find confg" style="text;html=1;align=center;verticalAlign=middle;resizable=0;points=[];autosize=1;strokeColor=none;fillColor=none;" vertex="1" parent="dxlrdK0r9Vb-s2KCxe1M-62">
          <mxGeometry x="342" y="221" width="70" height="26" as="geometry" />
        </mxCell>
        <mxCell id="dxlrdK0r9Vb-s2KCxe1M-24" value="is found" style="text;html=1;strokeColor=none;fillColor=none;align=center;verticalAlign=middle;whiteSpace=wrap;rounded=0;" vertex="1" parent="dxlrdK0r9Vb-s2KCxe1M-62">
          <mxGeometry x="350" y="5" width="60" height="30" as="geometry" />
        </mxCell>
        <mxCell id="dxlrdK0r9Vb-s2KCxe1M-31" value="&lt;span style=&quot;color: rgb(0, 0, 0); font-family: Helvetica; font-size: 11px; font-style: normal; font-variant-ligatures: normal; font-variant-caps: normal; font-weight: 400; letter-spacing: normal; orphans: 2; text-align: center; text-indent: 0px; text-transform: none; widows: 2; word-spacing: 0px; -webkit-text-stroke-width: 0px; background-color: rgb(251, 251, 251); text-decoration-thickness: initial; text-decoration-style: initial; text-decoration-color: initial; float: none; display: inline !important;&quot;&gt;VAR is found&lt;/span&gt;" style="text;whiteSpace=wrap;html=1;" vertex="1" parent="dxlrdK0r9Vb-s2KCxe1M-62">
          <mxGeometry x="265" y="299.99931034482756" width="133" height="36" as="geometry" />
        </mxCell>
        <mxCell id="dxlrdK0r9Vb-s2KCxe1M-34" value="VAR token is found" style="text;html=1;align=center;verticalAlign=middle;resizable=0;points=[];autosize=1;strokeColor=none;fillColor=none;" vertex="1" parent="dxlrdK0r9Vb-s2KCxe1M-62">
          <mxGeometry x="314" y="468" width="120" height="26" as="geometry" />
        </mxCell>
        <mxCell id="dxlrdK0r9Vb-s2KCxe1M-36" value="Last ENDVAR is found" style="text;html=1;align=center;verticalAlign=middle;resizable=0;points=[];autosize=1;strokeColor=none;fillColor=none;" vertex="1" parent="dxlrdK0r9Vb-s2KCxe1M-62">
          <mxGeometry x="253" y="549" width="139" height="26" as="geometry" />
        </mxCell>
        <mxCell id="dxlrdK0r9Vb-s2KCxe1M-38" value="introduce part of syntax to identify" style="text;html=1;strokeColor=none;fillColor=none;align=center;verticalAlign=middle;whiteSpace=wrap;rounded=0;" vertex="1" parent="dxlrdK0r9Vb-s2KCxe1M-62">
          <mxGeometry x="325" y="607" width="94" height="32" as="geometry" />
        </mxCell>
        <mxCell id="dxlrdK0r9Vb-s2KCxe1M-44" value="First ENDVAR is found" style="text;html=1;align=center;verticalAlign=middle;resizable=0;points=[];autosize=1;strokeColor=none;fillColor=none;" vertex="1" parent="dxlrdK0r9Vb-s2KCxe1M-62">
          <mxGeometry x="253" y="426" width="139" height="26" as="geometry" />
        </mxCell>
        <mxCell id="dxlrdK0r9Vb-s2KCxe1M-56" value="" style="endArrow=none;html=1;rounded=0;" edge="1" parent="dxlrdK0r9Vb-s2KCxe1M-62">
          <mxGeometry width="50" height="50" relative="1" as="geometry">
            <mxPoint x="77" y="791" as="sourcePoint" />
            <mxPoint x="443" y="791" as="targetPoint" />
          </mxGeometry>
        </mxCell>
        <mxCell id="dxlrdK0r9Vb-s2KCxe1M-61" value="END_FUNCTION, END_FUNCTION_BLOCK, or END_PROGRAM is found" style="text;html=1;strokeColor=none;fillColor=none;align=center;verticalAlign=middle;whiteSpace=wrap;rounded=0;" vertex="1" parent="dxlrdK0r9Vb-s2KCxe1M-62">
          <mxGeometry x="29" y="608" width="60" height="30" as="geometry" />
        </mxCell>
      </root>
    </mxGraphModel>
  </diagram>
</mxfile>
